<?xml version="1.0" encoding="UTF-8" standalone="no"?>
<!-- Created with Inkscape (http://www.inkscape.org/) -->

<svg
   xmlns:dc="http://purl.org/dc/elements/1.1/"
   xmlns:cc="http://creativecommons.org/ns#"
   xmlns:rdf="http://www.w3.org/1999/02/22-rdf-syntax-ns#"
   xmlns:svg="http://www.w3.org/2000/svg"
   xmlns="http://www.w3.org/2000/svg"
   xmlns:sodipodi="http://sodipodi.sourceforge.net/DTD/sodipodi-0.dtd"
   xmlns:inkscape="http://www.inkscape.org/namespaces/inkscape"
   width="140.87703"
   height="91.510338"
   id="svg3149"
   version="1.1"
   inkscape:version="0.48.4 r9939"
   sodipodi:docname="IAPhi_white.svg">
  <defs
     id="defs3151" />
  <sodipodi:namedview
     id="base"
     pagecolor="#ffffff"
     bordercolor="#666666"
     borderopacity="1.0"
     inkscape:pageopacity="0.0"
     inkscape:pageshadow="2"
     inkscape:zoom="2.3333333"
     inkscape:cx="184.1103"
     inkscape:cy="-0.39950451"
     inkscape:document-units="px"
     inkscape:current-layer="layer1"
     showgrid="false"
     fit-margin-top="0"
     fit-margin-left="0"
     fit-margin-right="0"
     fit-margin-bottom="0"
     inkscape:window-width="1280"
     inkscape:window-height="1002"
     inkscape:window-x="1912"
     inkscape:window-y="-8"
     inkscape:window-maximized="1" />
  <metadata
     id="metadata3154">
    <rdf:RDF>
      <cc:Work
         rdf:about="">
        <dc:format>image/svg+xml</dc:format>
        <dc:type
           rdf:resource="http://purl.org/dc/dcmitype/StillImage" />
        <dc:title></dc:title>
      </cc:Work>
    </rdf:RDF>
  </metadata>
  <g
     inkscape:label="Layer 1"
     inkscape:groupmode="layer"
     id="layer1"
     transform="translate(-58.847724,-34.548816)">
    <path
       style="font-size:medium;font-style:normal;font-variant:normal;font-weight:normal;font-stretch:normal;text-indent:0;text-align:start;text-decoration:none;line-height:normal;letter-spacing:normal;word-spacing:normal;text-transform:none;direction:ltr;block-progression:tb;writing-mode:lr-tb;text-anchor:start;baseline-shift:baseline;color:#000000;fill:#ffffff;fill-opacity:1;fill-rule:nonzero;stroke:none;stroke-width:2.09999989999999980;marker:none;visibility:visible;display:inline;overflow:visible;enable-background:accumulate;font-family:Sans;-inkscape-font-specification:Sans"
       d="m 127.98449,34.565943 c -10.6249,0.33789 -19.32,5.7154 -24.5517,12.43867 -5.529382,7.10568 -8.347192,15.27603 -10.915482,22.60452 -2.56777,7.32681 -5.00208,13.9969 -7.2983,17.29117 -1.23226,1.76797 -1.9371,2.67313 -2.56081,3.00984 -0.62361,0.3367 -1.53003,0.38703 -3.64915,0.0924 -0.61439,-0.0855 -0.64492,-0.13554 -0.83227,-0.18439 -0.0338,-0.22938 -0.0881,-0.48452 -0.0636,-1.01346 0.11729,-2.58959 2.09853,-8.2876 3.9373,-12.28506 a 1.0756469,1.0320482 0 0 0 -0.54423,-1.35135 l -15.65289,-6.60328 a 1.0756469,1.0320482 0 0 0 -1.40844,0.52216 c -2.0676,4.49506 -5.2176,11.14393 -5.56976,18.919 -0.17701,3.90744 0.44661,8.57321 3.52111,12.715037 3.10555,4.1836 8.35295,6.78361 13.89239,7.55531 10.6632,1.48521 20.06464,-4.14439 24.903932,-11.087307 4.7494,-6.81389 7.0733,-14.55643 9.571,-21.68304 0.6072,-1.73278 1.2945,-3.05288 1.9205,-4.66832 -0.4454,5.92386 0.011,11.33095 1.6326,16.12409 3.3973,10.01301 11.7947,16.391017 20.9666,18.980417 -0.14,6.44877 -0.096,12.86 -0.096,19.0726 a 1.0756469,1.0320482 0 0 0 1.0884,1.04413 l 17.0933,0 a 1.0756469,1.0320482 0 0 0 1.0563,-1.04413 c 0,-6.32542 0.039,-12.55287 0.2241,-18.61196 6.5005,-1.13406 12.8879,-3.28119 18.7579,-6.480317 9.9898,-5.44455 18.8251,-13.54472 22.7913,-24.32442 5.9693,-16.22316 0.8579,-31.12778 -10.4032,-37.03946 -11.2122,-5.88582 -26.0713,-2.59254 -34.347,8.35385 -9.0907,12.02481 -12.9848,25.73818 -14.7565,39.7114 -1.7601,-1.08963 -3.144,-2.53396 -4.0974,-5.3439 -1.8009,-5.30784 -1.4913,-16.45707 6.1139,-33.90677 1.203,-2.76483 0.884,-6.01535 -0.8002,-8.53821 -1.6842,-2.52266 -4.6261,-4.16139 -7.7465,-4.26902 a 1.0756469,1.0320482 0 0 0 -0.032,0 c -0.7251,-0.0236 -1.4363,-0.0226 -2.1446,0 z m 45.6464,19.53325 c 0.2996,6.8e-4 0.5793,0.0246 0.8643,0.0609 0.7735,0.10054 1.4706,0.31077 2.0487,0.61426 1.2754,0.66958 2.504,1.63263 3.0729,3.74693 0.569,2.11432 0.4234,5.52022 -1.5685,10.93371 -1.8709,5.08484 -7.2568,10.67886 -14.1484,14.43494 -2.4267,1.32257 -5.0356,2.30331 -7.6504,3.10194 1.6273,-11.1571 4.7295,-21.15233 10.8195,-29.20769 1.7747,-2.34772 3.7763,-3.38497 5.6337,-3.62409 0.3096,-0.0403 0.6288,-0.0619 0.9282,-0.0609 z"
       id="path6347"
       inkscape:connector-curvature="0" />
    <g
       transform="matrix(0.89459862,0,0,1.1253201,-759.43151,-1200.8812)"
       style="font-size:12.44223118000000000px;font-style:normal;font-weight:bold;line-height:125%;letter-spacing:0px;word-spacing:0px;fill:#ffffff;fill-opacity:1;stroke:none;font-family:Sans;-inkscape-font-specification:Sans Bold"
       id="g6353">
      <path
         style="fill:#ffffff;fill-opacity:1"
         d="m 916.91487,1175.5258 0,-8.9064 1.7983,0 0,8.9064 z"
         id="path6355"
         inkscape:connector-curvature="0" />
      <path
         style="fill:#ffffff;fill-opacity:1"
         d="m 920.01328,1172.2086 c 0,-0.567 0.13973,-1.1158 0.4192,-1.6464 0.27946,-0.5305 0.67537,-0.9356 1.18772,-1.215 0.51235,-0.2795 1.08444,-0.4192 1.71628,-0.4192 0.97609,0 1.776,0.3169 2.39974,0.9508 0.62373,0.6338 0.93559,1.4347 0.9356,2.4027 -10e-6,0.9761 -0.31491,1.7852 -0.94471,2.4271 -0.62981,0.642 -1.42264,0.963 -2.37848,0.963 -0.59134,0 -1.15533,-0.1337 -1.69198,-0.401 -0.53665,-0.2673 -0.94471,-0.6592 -1.22417,-1.1756 -0.27947,-0.5164 -0.4192,-1.1452 -0.4192,-1.8864 z m 1.74969,0.091 c 0,0.6399 0.15188,1.13 0.45565,1.4702 0.30376,0.3402 0.6784,0.5103 1.12393,0.5103 0.44552,0 0.81915,-0.1701 1.12089,-0.5103 0.30174,-0.3402 0.45261,-0.8343 0.45262,-1.4824 -10e-6,-0.6318 -0.15088,-1.1178 -0.45262,-1.4581 -0.30174,-0.3402 -0.67537,-0.5103 -1.12089,-0.5103 -0.44553,0 -0.82017,0.1701 -1.12393,0.5103 -0.30377,0.3403 -0.45565,0.8303 -0.45565,1.4703 z"
         id="path6357"
         inkscape:connector-curvature="0" />
      <path
         style="fill:#ffffff;fill-opacity:1"
         d="m 933.88321,1175.5258 -1.70716,0 0,-3.2929 c -1e-5,-0.6966 -0.0365,-1.1472 -0.10936,-1.3517 -0.0729,-0.2045 -0.19137,-0.3635 -0.3554,-0.4769 -0.16404,-0.1134 -0.36149,-0.1701 -0.59234,-0.1701 -0.29567,0 -0.56096,0.081 -0.79587,0.243 -0.23492,0.162 -0.39591,0.3766 -0.48299,0.644 -0.0871,0.2673 -0.13062,0.7614 -0.13062,1.4823 l 0,2.9223 -1.70716,0 0,-6.452 1.58566,0 0,0.9477 c 0.56297,-0.729 1.27176,-1.0935 2.12636,-1.0935 0.37666,0 0.72093,0.068 1.0328,0.2035 0.31186,0.1357 0.54778,0.3088 0.70777,0.5194 0.15998,0.2107 0.27136,0.4496 0.33414,0.7169 0.0628,0.2673 0.0942,0.6501 0.0942,1.1483 z"
         id="path6359"
         inkscape:connector-curvature="0" />
      <path
         style="fill:#ffffff;fill-opacity:1"
         d="m 946.96335,1174.4383 -1.0328,1.3183 c -0.50629,-0.247 -0.99231,-0.5873 -1.45808,-1.0206 -0.36047,0.324 -0.74322,0.5629 -1.14823,0.7169 -0.40503,0.1539 -0.887,0.2308 -1.44592,0.2308 -1.10976,0 -1.9441,-0.3119 -2.50303,-0.9356 -0.43337,-0.482 -0.65006,-1.0368 -0.65006,-1.6646 0,-0.5711 0.17011,-1.0845 0.51033,-1.5401 0.34021,-0.4557 0.84851,-0.8516 1.5249,-1.1877 -0.30377,-0.3605 -0.5326,-0.7037 -0.68651,-1.0298 -0.15391,-0.326 -0.23086,-0.6349 -0.23086,-0.9265 0,-0.5386 0.21567,-0.9953 0.64702,-1.37 0.43134,-0.3746 1.04596,-0.5619 1.84385,-0.5619 0.76954,0 1.37099,0.1964 1.80437,0.5893 0.43337,0.3929 0.65005,0.8728 0.65006,1.4398 -1e-5,0.3605 -0.10734,0.7027 -0.32199,1.0268 -0.21467,0.324 -0.64804,0.6905 -1.30012,1.0996 l 1.23936,1.6342 c 0.14581,-0.2592 0.27136,-0.5974 0.37667,-1.0145 l 1.54313,0.3523 c -0.15391,0.5468 -0.28757,0.9468 -0.40097,1.1999 -0.11341,0.2531 -0.23492,0.4648 -0.36452,0.6349 0.19035,0.1782 0.4364,0.3736 0.73815,0.5862 0.30173,0.2127 0.52348,0.3534 0.66525,0.4223 z m -4.64761,-4.842 0.46172,-0.3524 c 0.34021,-0.2633 0.51032,-0.5245 0.51033,-0.7837 -10e-6,-0.2187 -0.082,-0.405 -0.24605,-0.559 -0.16404,-0.1539 -0.38579,-0.2308 -0.66525,-0.2308 -0.27137,0 -0.484,0.068 -0.63791,0.2035 -0.15391,0.1357 -0.23086,0.2926 -0.23086,0.4708 0,0.2107 0.12961,0.4658 0.38882,0.7655 z m -0.66829,1.8529 c -0.39287,0.1985 -0.68651,0.4375 -0.88092,0.7169 -0.19441,0.2795 -0.29161,0.565 -0.29161,0.8566 0,0.3686 0.12049,0.6693 0.36148,0.9022 0.24099,0.2329 0.56399,0.3493 0.96901,0.3493 0.26731,0 0.5245,-0.053 0.77157,-0.1579 0.24705,-0.1053 0.51639,-0.2795 0.80801,-0.5225 z"
         id="path6361"
         inkscape:connector-curvature="0" />
      <path
         style="fill:#ffffff;fill-opacity:1"
         d="m 959.55746,1175.5258 -1.95625,0 -0.77763,-2.0231 -3.56014,0 -0.73511,2.0231 -1.90764,0 3.469,-8.9064 1.90157,0 z m -3.31104,-3.5237 -1.22721,-3.305 -1.20291,3.305 z"
         id="path6363"
         inkscape:connector-curvature="0" />
      <path
         style="fill:#ffffff;fill-opacity:1"
         d="m 960.45661,1169.0738 1.59173,0 0,0.9477 c 0.20656,-0.324 0.48602,-0.5872 0.83839,-0.7898 0.35237,-0.2025 0.74321,-0.3037 1.17254,-0.3037 0.74928,0 1.38516,0.2936 1.90764,0.8809 0.52247,0.5873 0.78371,1.4054 0.78372,2.4544 -10e-6,1.0774 -0.26327,1.9148 -0.78979,2.5122 -0.52653,0.5974 -1.16444,0.8961 -1.91372,0.8961 -0.35643,0 -0.67943,-0.071 -0.96902,-0.2127 -0.28959,-0.1417 -0.59437,-0.3847 -0.91433,-0.729 l 0,3.2503 -1.70716,0 z m 1.68893,3.1166 c 0,0.725 0.14378,1.2606 0.43135,1.6069 0.28756,0.3463 0.6379,0.5195 1.05103,0.5195 0.39692,0 0.72701,-0.159 0.99027,-0.4769 0.26326,-0.318 0.39489,-0.8394 0.3949,-1.5644 -1e-5,-0.6764 -0.13569,-1.1786 -0.40705,-1.5067 -0.27136,-0.3281 -0.60753,-0.4921 -1.0085,-0.4921 -0.41717,0 -0.76346,0.161 -1.03887,0.483 -0.27542,0.322 -0.41313,0.7989 -0.41313,1.4307 z"
         id="path6365"
         inkscape:connector-curvature="0" />
      <path
         style="fill:#ffffff;fill-opacity:1"
         d="m 968.06289,1169.0738 1.59173,0 0,0.9477 c 0.20656,-0.324 0.48603,-0.5872 0.8384,-0.7898 0.35236,-0.2025 0.74321,-0.3037 1.17253,-0.3037 0.74928,0 1.38517,0.2936 1.90765,0.8809 0.52247,0.5873 0.78371,1.4054 0.78371,2.4544 0,1.0774 -0.26327,1.9148 -0.78979,2.5122 -0.52653,0.5974 -1.16444,0.8961 -1.91372,0.8961 -0.35642,0 -0.67942,-0.071 -0.96901,-0.2127 -0.28959,-0.1417 -0.59437,-0.3847 -0.91433,-0.729 l 0,3.2503 -1.70717,0 z m 1.68894,3.1166 c 0,0.725 0.14378,1.2606 0.43135,1.6069 0.28756,0.3463 0.6379,0.5195 1.05102,0.5195 0.39692,0 0.72701,-0.159 0.99028,-0.4769 0.26326,-0.318 0.39489,-0.8394 0.39489,-1.5644 0,-0.6764 -0.13568,-1.1786 -0.40704,-1.5067 -0.27137,-0.3281 -0.60754,-0.4921 -1.0085,-0.4921 -0.41718,0 -0.76347,0.161 -1.03888,0.483 -0.27542,0.322 -0.41312,0.7989 -0.41312,1.4307 z"
         id="path6367"
         inkscape:connector-curvature="0" />
      <path
         style="fill:#ffffff;fill-opacity:1"
         d="m 975.71778,1175.5258 0,-8.9064 1.70717,0 0,8.9064 z"
         id="path6369"
         inkscape:connector-curvature="0" />
      <path
         style="fill:#ffffff;fill-opacity:1"
         d="m 979.16856,1168.1989 0,-1.5795 1.70716,0 0,1.5795 z m 0,7.3269 0,-6.452 1.70716,0 0,6.452 z"
         id="path6371"
         inkscape:connector-curvature="0" />
      <path
         style="fill:#ffffff;fill-opacity:1"
         d="m 986.35565,1173.4723 1.70109,0.2855 c -0.21872,0.6238 -0.564,1.0987 -1.03584,1.4247 -0.47186,0.326 -1.06217,0.4891 -1.77096,0.4891 -1.12191,0 -1.9522,-0.3666 -2.49087,-1.0997 -0.42527,-0.5872 -0.63791,-1.3284 -0.63791,-2.2235 0,-1.0693 0.27946,-1.9067 0.83839,-2.5122 0.55893,-0.6055 1.26569,-0.9082 2.12029,-0.9082 0.95989,0 1.71728,0.3169 2.27216,0.9508 0.55487,0.6338 0.82016,1.6049 0.79587,2.9131 l -4.27702,0 c 0.0122,0.5062 0.14985,0.9001 0.41312,1.1816 0.26326,0.2815 0.59133,0.4223 0.9842,0.4222 0.26731,10e-5 0.4921,-0.073 0.67436,-0.2187 0.18225,-0.1458 0.31996,-0.3807 0.41312,-0.7047 z m 0.0972,-1.7254 c -0.0122,-0.4941 -0.13973,-0.8698 -0.38274,-1.127 -0.24302,-0.2571 -0.53868,-0.3857 -0.88699,-0.3857 -0.37263,0 -0.68044,0.1357 -0.92345,0.407 -0.24302,0.2714 -0.3625,0.6399 -0.35844,1.1057 z"
         id="path6373"
         inkscape:connector-curvature="0" />
      <path
         style="fill:#ffffff;fill-opacity:1"
         d="m 995.46254,1175.5258 -1.58566,0 0,-0.9478 c -0.26327,0.3686 -0.57412,0.643 -0.93256,0.8232 -0.35845,0.1802 -0.71993,0.2704 -1.08444,0.2704 -0.74119,0 -1.37606,-0.2987 -1.90461,-0.8961 -0.52855,-0.5974 -0.79283,-1.4308 -0.79283,-2.5 0,-1.0936 0.25719,-1.9249 0.77156,-2.4939 0.51438,-0.5691 1.16444,-0.8536 1.95018,-0.8536 0.72093,0 1.34466,0.2997 1.87119,0.8991 l 0,-3.2077 1.70717,0 z m -4.55649,-3.3658 c 0,0.6886 0.0952,1.1867 0.28554,1.4946 0.27541,0.4455 0.66018,0.6682 1.15431,0.6682 0.39287,0 0.72701,-0.167 1.00243,-0.5012 0.27541,-0.3341 0.41311,-0.8333 0.41312,-1.4975 -10e-6,-0.7412 -0.13366,-1.2748 -0.40097,-1.6009 -0.26732,-0.326 -0.60956,-0.489 -1.02673,-0.489 -0.40502,0 -0.74423,0.161 -1.01761,0.483 -0.27339,0.3219 -0.41009,0.8029 -0.41009,1.4428 z"
         id="path6375"
         inkscape:connector-curvature="0" />
    </g>
    <g
       transform="matrix(0.89459862,0,0,1.1253201,-759.43151,-1200.8812)"
       style="font-size:12.44223118000000000px;font-style:normal;font-weight:bold;line-height:125%;letter-spacing:0px;word-spacing:0px;fill:#ffffff;fill-opacity:1;stroke:none;font-family:Sans;-inkscape-font-specification:Sans Bold"
       id="g6377">
      <path
         style="fill:#ffffff;fill-opacity:1"
         d="m 1026.6051,1175.5258 0,-8.9064 2.8857,0 c 1.0936,0 1.8064,0.044 2.1385,0.1336 0.5103,0.1337 0.9376,0.4243 1.2819,0.8718 0.3443,0.4476 0.5164,1.0257 0.5164,1.7345 0,0.5468 -0.099,1.0065 -0.2977,1.3791 -0.1984,0.3726 -0.4506,0.6653 -0.7563,0.8779 -0.3058,0.2126 -0.6167,0.3534 -0.9326,0.4222 -0.4293,0.085 -1.051,0.1276 -1.8651,0.1276 l -1.1726,0 0,3.3597 z m 1.7982,-7.3998 0,2.5274 0.9842,0 c 0.7088,0 1.1827,-0.047 1.4217,-0.1398 0.2389,-0.093 0.4262,-0.2389 0.5619,-0.4374 0.1357,-0.1984 0.2035,-0.4293 0.2036,-0.6926 -10e-5,-0.324 -0.095,-0.5913 -0.2856,-0.8019 -0.1904,-0.2106 -0.4313,-0.3423 -0.7229,-0.3949 -0.2147,-0.04 -0.6461,-0.061 -1.2941,-0.061 z"
         id="path6379"
         inkscape:connector-curvature="0" />
      <path
         style="fill:#ffffff;fill-opacity:1"
         d="m 1036.605,1166.6194 0,3.2745 c 0.5508,-0.6439 1.209,-0.9659 1.9745,-0.9659 0.3928,0 0.7472,0.073 1.0632,0.2187 0.3159,0.1458 0.5538,0.3321 0.7138,0.5589 0.16,0.2268 0.2693,0.4779 0.3281,0.7533 0.059,0.2755 0.088,0.7028 0.088,1.2819 l 0,3.785 -1.7072,0 0,-3.4083 c 0,-0.6764 -0.032,-1.1057 -0.097,-1.288 -0.065,-0.1822 -0.1792,-0.327 -0.3433,-0.4343 -0.164,-0.1074 -0.3695,-0.161 -0.6166,-0.161 -0.2835,0 -0.5367,0.069 -0.7594,0.2065 -0.2228,0.1377 -0.3858,0.3453 -0.4891,0.6227 -0.1033,0.2775 -0.1549,0.6876 -0.1549,1.2303 l 0,3.2321 -1.7072,0 0,-8.9064 z"
         id="path6381"
         inkscape:connector-curvature="0" />
      <path
         style="fill:#ffffff;fill-opacity:1"
         d="m 1041.7022,1169.0738 1.8165,0 1.5431,4.5808 1.5067,-4.5808 1.7679,0 -2.2782,6.2089 -0.4071,1.124 c -0.1498,0.3766 -0.2926,0.6642 -0.4283,0.8627 -0.1357,0.1984 -0.2916,0.3594 -0.4678,0.483 -0.1762,0.1235 -0.3928,0.2197 -0.65,0.2885 -0.2572,0.069 -0.5478,0.1033 -0.8718,0.1033 -0.3281,0 -0.6501,-0.034 -0.966,-0.1033 l -0.1519,-1.3365 c 0.2673,0.053 0.5083,0.079 0.723,0.079 0.3969,0 0.6905,-0.1164 0.8809,-0.3493 0.1904,-0.2329 0.3362,-0.5295 0.4374,-0.89 z"
         id="path6383"
         inkscape:connector-curvature="0" />
      <path
         style="fill:#ffffff;fill-opacity:1"
         d="m 1048.8346,1173.6849 1.7132,-0.2612 c 0.073,0.3321 0.2208,0.5842 0.4435,0.7564 0.2228,0.1721 0.5347,0.2582 0.9356,0.2582 0.4415,0 0.7736,-0.081 0.9964,-0.243 0.1498,-0.1134 0.2248,-0.2653 0.2248,-0.4557 0,-0.1296 -0.041,-0.2369 -0.1215,-0.322 -0.085,-0.081 -0.2755,-0.1559 -0.5711,-0.2248 -1.3771,-0.3037 -2.2499,-0.5812 -2.6185,-0.8323 -0.5103,-0.3483 -0.7655,-0.8323 -0.7655,-1.452 0,-0.5589 0.2208,-1.0287 0.6622,-1.4094 0.4415,-0.3808 1.126,-0.5711 2.0535,-0.5711 0.8829,0 1.5391,0.1438 1.9684,0.4313 0.4293,0.2876 0.725,0.7129 0.887,1.2758 l -1.61,0.2977 c -0.069,-0.2511 -0.1994,-0.4435 -0.3918,-0.5771 -0.1924,-0.1337 -0.4668,-0.2005 -0.8232,-0.2005 -0.4496,0 -0.7716,0.063 -0.966,0.1883 -0.1296,0.089 -0.1944,0.2046 -0.1944,0.3463 0,0.1215 0.057,0.2248 0.1701,0.3099 0.1539,0.1134 0.6855,0.2733 1.5948,0.4799 0.9092,0.2066 1.5441,0.4597 1.9046,0.7594 0.3564,0.3038 0.5346,0.727 0.5346,1.2698 0,0.5913 -0.2471,1.0996 -0.7412,1.5249 -0.4941,0.4252 -1.2252,0.6379 -2.1932,0.6379 -0.8789,0 -1.5745,-0.1782 -2.0868,-0.5347 -0.5124,-0.3564 -0.8475,-0.8404 -1.0055,-1.452 z"
         id="path6385"
         inkscape:connector-curvature="0" />
      <path
         style="fill:#ffffff;fill-opacity:1"
         d="m 1056.3619,1168.1989 0,-1.5795 1.7072,0 0,1.5795 z m 0,7.3269 0,-6.452 1.7072,0 0,6.452 z"
         id="path6387"
         inkscape:connector-curvature="0" />
      <path
         style="fill:#ffffff;fill-opacity:1"
         d="m 1065.4384,1170.9814 -1.6828,0.3038 c -0.057,-0.3362 -0.1853,-0.5893 -0.3858,-0.7594 -0.2005,-0.1701 -0.4607,-0.2552 -0.7807,-0.2552 -0.4253,0 -0.7645,0.1468 -1.0176,0.4405 -0.2532,0.2936 -0.3797,0.7847 -0.3797,1.4732 0,0.7655 0.1286,1.3062 0.3858,1.6221 0.2571,0.316 0.6024,0.4739 1.0358,0.4739 0.324,0 0.5893,-0.092 0.7959,-0.2764 0.2065,-0.1843 0.3523,-0.5012 0.4374,-0.9508 l 1.6768,0.2855 c -0.1742,0.7696 -0.5083,1.3508 -1.0024,1.7437 -0.4942,0.3928 -1.1564,0.5893 -1.9867,0.5893 -0.9437,0 -1.696,-0.2977 -2.257,-0.8931 -0.5609,-0.5954 -0.8414,-1.4196 -0.8414,-2.4727 0,-1.0652 0.2815,-1.8944 0.8445,-2.4878 0.563,-0.5933 1.3244,-0.89 2.2843,-0.89 0.7857,0 1.4105,0.1691 1.8742,0.5073 0.4638,0.3382 0.7969,0.8535 0.9994,1.5461 z"
         id="path6389"
         inkscape:connector-curvature="0" />
      <path
         style="fill:#ffffff;fill-opacity:1"
         d="m 1066.1371,1173.6849 1.7132,-0.2612 c 0.073,0.3321 0.2208,0.5842 0.4435,0.7564 0.2228,0.1721 0.5346,0.2582 0.9356,0.2582 0.4415,0 0.7736,-0.081 0.9964,-0.243 0.1498,-0.1134 0.2247,-0.2653 0.2248,-0.4557 -10e-5,-0.1296 -0.041,-0.2369 -0.1216,-0.322 -0.085,-0.081 -0.2754,-0.1559 -0.571,-0.2248 -1.3771,-0.3037 -2.2499,-0.5812 -2.6185,-0.8323 -0.5103,-0.3483 -0.7655,-0.8323 -0.7655,-1.452 0,-0.5589 0.2208,-1.0287 0.6622,-1.4094 0.4415,-0.3808 1.126,-0.5711 2.0535,-0.5711 0.8829,0 1.5391,0.1438 1.9684,0.4313 0.4293,0.2876 0.725,0.7129 0.887,1.2758 l -1.61,0.2977 c -0.069,-0.2511 -0.1995,-0.4435 -0.3918,-0.5771 -0.1924,-0.1337 -0.4668,-0.2005 -0.8232,-0.2005 -0.4496,0 -0.7716,0.063 -0.966,0.1883 -0.1296,0.089 -0.1944,0.2046 -0.1944,0.3463 0,0.1215 0.057,0.2248 0.1701,0.3099 0.1539,0.1134 0.6855,0.2733 1.5948,0.4799 0.9092,0.2066 1.5441,0.4597 1.9046,0.7594 0.3564,0.3038 0.5346,0.727 0.5346,1.2698 0,0.5913 -0.2471,1.0996 -0.7412,1.5249 -0.4941,0.4252 -1.2252,0.6379 -2.1932,0.6379 -0.8789,0 -1.5745,-0.1782 -2.0869,-0.5347 -0.5123,-0.3564 -0.8475,-0.8404 -1.0054,-1.452 z"
         id="path6391"
         inkscape:connector-curvature="0" />
    </g>
    <path
       style="font-size:medium;font-style:normal;font-variant:normal;font-weight:normal;font-stretch:normal;text-indent:0;text-align:start;text-decoration:none;line-height:normal;letter-spacing:normal;word-spacing:normal;text-transform:none;direction:ltr;block-progression:tb;writing-mode:lr-tb;text-anchor:start;baseline-shift:baseline;color:#000000;fill:#ffffff;fill-opacity:1;fill-rule:nonzero;stroke:none;stroke-width:2.20092964000000000;marker:none;visibility:visible;display:inline;overflow:visible;enable-background:accumulate;font-family:Sans;-inkscape-font-specification:Sans"
       d="m 69.185898,43.980133 c 3.30057,-6.24346 11.23508,-8.73802 17.73993,-5.57241 6.50497,3.16572 9.09426,10.78196 5.79368,17.02543 -3.30068,6.24356 -11.22586,8.72063 -17.73083,5.5551 -6.50485,-3.16581 -9.10346,-10.76456 -5.80278,-17.00812 z"
       id="path6395"
       inkscape:connector-curvature="0" />
  </g>
</svg>
