<?xml version="1.0" encoding="UTF-8" standalone="no"?>
<!-- Generator: Adobe Illustrator 11.0, SVG Export Plug-In . SVG Version: 6.0.0 Build 78)  -->
<!-- Created by Cary Bass http://commons.wikipedia.com/wiki/User:Bastique on January 20, 2006 -->
<svg
   xmlns:dc="http://purl.org/dc/elements/1.1/"
   xmlns:cc="http://web.resource.org/cc/"
   xmlns:rdf="http://www.w3.org/1999/02/22-rdf-syntax-ns#"
   xmlns:svg="http://www.w3.org/2000/svg"
   xmlns="http://www.w3.org/2000/svg"
   xmlns:sodipodi="http://sodipodi.sourceforge.net/DTD/sodipodi-0.dtd"
   xmlns:inkscape="http://www.inkscape.org/namespaces/inkscape"
   version="1.0"
   width="615.89575"
   height="540.0105"
   id="radioactive"
   sodipodi:version="0.32"
   inkscape:version="0.44"
   sodipodi:docname="WarnungVorFeuergefaehrlichenStoffen_D-W001.svg"
   sodipodi:docbase="/export/transfer">
  <defs
     id="defs58" />
  <sodipodi:namedview
     inkscape:window-height="966"
     inkscape:window-width="1272"
     inkscape:pageshadow="2"
     inkscape:pageopacity="0.0"
     guidetolerance="10.0"
     gridtolerance="10.0"
     objecttolerance="10.0"
     borderopacity="1.0"
     bordercolor="#666666"
     pagecolor="#ffffff"
     id="base"
     inkscape:zoom="1.0955294"
     inkscape:cx="307.94787"
     inkscape:cy="350.51547"
     inkscape:window-x="0"
     inkscape:window-y="0"
     inkscape:current-layer="radioactive"
     inkscape:document-units="mm"
     gridspacingx="0.25mm"
     gridspacingy="0.25mm"
     grid_units="mm"
     width="169.33334mm"
     height="148.16667mm"
     units="mm" />
  <metadata
     id="metadata60">
    <rdf:RDF>
      <cc:Work
         rdf:about="">
        <dc:format>image/svg+xml</dc:format>
        <dc:type
           rdf:resource="http://purl.org/dc/dcmitype/StillImage" />
      </cc:Work>
    </rdf:RDF>
  </metadata>
  <path
     style="fill:none;fill-rule:evenodd;stroke:black;stroke-width:1px;stroke-linecap:butt;stroke-linejoin:miter;stroke-opacity:1"
     d="M 24.689244,-160.5126 C 24.757113,-160.5635 24.689244,-160.34292 24.689244,-160.5126 z "
     id="path1965" />
  <g
     id="g1891"
     transform="translate(8.146196,8.022892)">
    <path
       id="path1877"
       d="M 299.09375,-8 C 285.2752,-7.992418 276.97358,5.3760798 271.875,16.53125 C 179.06241,177.95887 85.093615,338.77609 -7,500.5625 C -12.655568,516.74325 3.5954928,534.90536 20.3125,531.59287 C 209.912,531.32032 399.54938,532.21713 589.125,531.09375 C 605.71557,527.93 613.80037,504.94424 602.49938,492.16558 C 507.36358,328.05043 413.40661,163.19507 317.5,-0.4375 C 312.77524,-5.3226321 305.97101,-8.3168021 299.09375,-8 z "
       style="fill:yellow" />
    <g
       id="g4">
      <path
         id="sign_border"
         d="M 597.6,499.6 L 313.8,8 C 310.9,3 305.6,0 299.9,0 C 294.2,0 288.9,3.1 286,8 L 2.2,499.6 C -0.7,504.6 -0.7,510.7 2.2,515.6 C 5.1,520.6 10.4,523.6 16.1,523.6 L 583.7,523.6 C 589.4,523.6 594.7,520.5 597.6,515.6 C 600.5,510.6 600.5,504.5 597.6,499.6 z " />
      <polygon
         points="43.9,491.5 299.9,48.2 555.9,491.5 43.9,491.5 "
         id="sign_bg"
         style="fill:#f7f619" />
    </g>
    <g
       id="g2863">
      <path
         style="fill:black;fill-rule:evenodd;stroke:black;stroke-width:1px;stroke-linecap:butt;stroke-linejoin:miter;stroke-opacity:1"
         d="M 290.0048,194.42098 C 278.29926,197.901 283.94113,263.99678 278.28605,255.79598 C 277.33695,251.68322 264.04667,233.96415 255.5048,235.54598 C 255.5048,235.54598 267.53766,255.46672 249.5048,307.98348 C 249.5048,307.98348 242.22999,287.13168 231.47355,285.23348 C 231.47355,285.23348 229.23872,335.51635 225.4423,348.17098 C 225.4423,348.17098 223.88235,345.31854 213.4423,338.35848 C 209.11803,361.31219 201.72052,464.3162 278.91105,449.73348 C 265.94004,444.03889 242.55118,422.83819 238.7548,386.13973 C 238.7548,386.13973 245.06761,388.99154 247.59855,390.88973 C 248.3989,391.48999 254.25126,359.88135 257.09855,355.45223 C 257.09855,355.45223 263.11626,402.6017 279.5673,410.82723 C 279.5673,410.82723 270.05281,375.3717 278.91105,356.38973 C 278.91105,356.38973 288.08373,382.35495 294.41105,385.20223 C 294.41105,385.20223 312.45324,357.99027 306.4423,319.07723 C 306.4423,319.07723 333.32342,351.02632 320.03605,380.76473 C 319.50393,381.95567 335.22388,366.52117 337.7548,355.76473 C 337.7548,355.76473 344.71904,365.90455 339.97355,390.26473 C 339.73158,391.50685 347.5715,387.0769 349.78605,384.54598 C 349.78605,384.54598 350.72903,425.69318 301.6923,446.88973 C 317.5395,460.35985 401.68263,447.82853 387.1298,365.88973 C 383.52554,374.90037 377.0048,380.76472 377.0048,380.76473 C 375.1066,363.04823 398.81376,326.33883 370.97355,294.70223 C 370.97355,294.70223 364.96518,315.28052 360.53605,316.54598 C 360.53605,316.54598 348.83437,245.67099 329.53605,245.67098 C 329.53605,245.67098 329.85597,268.76893 326.6923,270.98348 C 326.6923,270.98348 311.17942,223.54179 302.0048,221.32723 C 297.0984,217.4722 290.0048,194.42098 290.0048,194.42098 z M 298.53605,262.13973 C 298.21969,273.52891 299.797,275.09785 293.78605,283.63973 C 293.23963,278.79875 293.12939,261.97821 298.53605,262.13973 z "
         id="path1933" />
      <rect
         style="fill:black;fill-opacity:1;stroke:black;stroke-width:0.63779527;stroke-linecap:square;stroke-miterlimit:4;stroke-dasharray:none;stroke-dashoffset:0;stroke-opacity:0.4"
         id="rect1935"
         width="118.3209"
         height="6.6436872"
         x="235.58138"
         y="454.47574" />
    </g>
  </g>
</svg>
